name analog
datacolumns 19
datarows 51
range 0.0 0.025
endheader
time	ground_force_vx	ground_force_vy	ground_force_vz	ground_force_px	ground_force_py	ground_force_pz	l_ground_force_vx	l_ground_force_vy	l_ground_force_vz	l_ground_force_px	l_ground_force_py	l_ground_force_pz	ground_torque_x	ground_torque_y	ground_torque_z	l_ground_torque_x	l_ground_torque_y	l_ground_torque_z
0.0	-0.0	-0.0	-0.0	-0.0390706211328506	67.3324966430664	-624.2120361328125	12.051201820373535	-15.071332931518556	-205.27464294433597	-0.0	-0.0	-0.0	-0.0	-0.0	-0.0	53193.9296875	-25156.087890625	5322.99267578125
0.0005	-0.0	-0.0	-0.0	-0.6423803567886353	67.52168273925781	-626.9505615234375	11.677976608276367	-14.51646327972412	-201.111328125	-0.0	-0.0	-0.0	-0.0	-0.0	-0.0	52124.26953125	-24836.3046875	5263.5185546875
0.001	-0.0	-0.0	-0.0	-1.4523000717163086	67.48942565917969	-630.130126953125	11.202503204345703	-13.413877487182615	-198.09445190429688	-0.0	-0.0	-0.0	-0.0	-0.0	-0.0	51528.09765625	-24776.953125	5058.1083984375
0.0015	-0.0	-0.0	-0.0	-1.8339283466339111	67.73910522460938	-630.6519775390625	11.234350204467772	-13.44965934753418	-195.6505279541016	-0.0	-0.0	-0.0	-0.0	-0.0	-0.0	50857.8359375	-24762.044921875	5009.47900390625
0.002	-0.0	-0.0	-0.0	-2.359067678451538	67.52867889404297	-631.8786010742188	10.886605262756348	-12.99038028717041	-191.96372985839844	-0.0	-0.0	-0.0	-0.0	-0.0	-0.0	50132.70703125	-24537.833984375	4917.99169921875
0.0025	-0.0	-0.0	-0.0	-2.9364442825317383	67.2612533569336	-633.5751342773438	10.499853134155272	-13.697061538696287	-190.28762817382807	-0.0	-0.0	-0.0	-0.0	-0.0	-0.0	49607.99609375	-24385.126953125	4898.55517578125
0.003	-0.0	-0.0	-0.0	-2.6592648029327397	67.30866241455078	-632.4476318359375	10.627958297729492	-14.075024604797363	-189.56044006347656	-0.0	-0.0	-0.0	-0.0	-0.0	-0.0	49345.8671875	-24341.05078125	4930.6689453125
0.0035	-0.0	-0.0	-0.0	-2.9439468383789062	67.5132064819336	-631.8388671875	10.709379196166992	-14.573078155517578	-187.74664306640625	-0.0	-0.0	-0.0	-0.0	-0.0	-0.0	48968.70703125	-24464.65625	5116.8447265625
0.004	-0.0	-0.0	-0.0	-3.2929909229278564	67.82044982910156	-631.2605590820312	10.775585174560549	-14.636954307556152	-187.145263671875	-0.0	-0.0	-0.0	-0.0	-0.0	-0.0	48612.44140625	-24133.0546875	5195.15283203125
0.0045000000000000005	-0.0	-0.0	-0.0	-3.1223678588867188	67.26111602783203	-630.1356201171875	11.194405555725098	-14.172615051269531	-187.434326171875	-0.0	-0.0	-0.0	-0.0	-0.0	-0.0	48365.10546875	-24172.9296875	5273.82177734375
0.005	-0.0	-0.0	-0.0	-3.235529661178589	67.2850112915039	-630.587890625	11.483542442321776	-14.548755645751951	-187.5602264404297	-0.0	-0.0	-0.0	-0.0	-0.0	-0.0	48452.046875	-24273.25390625	5400.314453125
0.0055	-0.0	-0.0	-0.0	-2.879077672958374	67.14752960205078	-628.4995727539062	11.830711364746094	-14.25961208343506	-185.81021118164065	-0.0	-0.0	-0.0	-0.0	-0.0	-0.0	48146.18359375	-24328.6484375	5584.24609375
0.006	-0.0	-0.0	-0.0	-2.855074882507324	67.39078521728516	-627.02294921875	12.185590744018556	-13.898576736450195	-185.01914978027344	-0.0	-0.0	-0.0	-0.0	-0.0	-0.0	48138.15234375	-24176.90625	5757.30908203125
0.006500000000000001	-0.0	-0.0	-0.0	-2.976439952850342	67.69837951660156	-625.514404296875	12.161371231079102	-13.30448055267334	-183.4954071044922	-0.0	-0.0	-0.0	-0.0	-0.0	-0.0	47990.33984375	-23893.015625	5776.21875
0.007	-0.0	-0.0	-0.0	-2.732996225357056	66.51639556884766	-626.1217041015625	12.121106147766112	-12.573808670043944	-182.44793701171875	-0.0	-0.0	-0.0	-0.0	-0.0	-0.0	47817.29296875	-24027.771484375	5881.6162109375
0.0075	-0.0	-0.0	-0.0	-2.6111834049224854	67.11518859863281	-625.4144287109375	12.540528297424316	-12.276714324951172	-181.62347412109372	-0.0	-0.0	-0.0	-0.0	-0.0	-0.0	47110.08984375	-23983.626953125	5836.0673828125
0.008	-0.0	-0.0	-0.0	-2.9765424728393555	67.04149627685547	-626.086181640625	11.798534393310549	-12.228851318359377	-180.1949005126953	-0.0	-0.0	-0.0	-0.0	-0.0	-0.0	46878.796875	-23792.330078125	5811.39892578125
0.0085	-0.0	-0.0	-0.0	-2.887364387512207	66.79993438720703	-624.000244140625	11.91121768951416	-12.43784999847412	-178.5108184814453	-0.0	-0.0	-0.0	-0.0	-0.0	-0.0	46762.65234375	-23966.548828125	5789.80029296875
0.009000000000000001	-0.0	-0.0	-0.0	-2.6524338722229004	66.83902740478516	-623.8798217773438	11.508502006530762	-12.669122695922852	-178.7050323486328	-0.0	-0.0	-0.0	-0.0	-0.0	-0.0	46685.44921875	-23671.15234375	5743.80615234375
0.0095	-0.0	-0.0	-0.0	-2.6674227714538574	67.03495025634766	-624.9638671875	11.56282901763916	-12.453357696533203	-179.30233764648438	-0.0	-0.0	-0.0	-0.0	-0.0	-0.0	46530.55859375	-23699.220703125	5811.24462890625
0.01	-0.0	-0.0	-0.0	-2.9112203121185303	66.76763153076172	-623.8807983398438	11.573558807373049	-12.677346229553224	-176.98565673828125	-0.0	-0.0	-0.0	-0.0	-0.0	-0.0	46647.5390625	-23631.06640625	5767.78564453125
0.0105	-0.0	-0.0	-0.0	-2.8164453506469727	67.22798919677734	-625.7051391601562	11.331275939941406	-12.806644439697266	-177.14779663085938	-0.0	-0.0	-0.0	-0.0	-0.0	-0.0	46493.8203125	-23791.857421875	5751.703125
0.011	-0.0	-0.0	-0.0	-3.0003581047058105	67.17155456542969	-626.7281494140625	11.603297233581545	-13.527877807617188	-178.38140869140625	-0.0	-0.0	-0.0	-0.0	-0.0	-0.0	46415.7734375	-23656.25	5821.94677734375
0.0115	-0.0	-0.0	-0.0	-3.023892879486084	66.9461898803711	-626.2613525390625	11.635709762573242	-13.457318305969238	-178.3457489013672	-0.0	-0.0	-0.0	-0.0	-0.0	-0.0	46172.11328125	-24086.7734375	5929.77978515625
0.012	-0.0	-0.0	-0.0	-2.990921974182129	66.82433319091797	-627.8609008789062	11.91075325012207	-14.122416496276855	-178.50900268554688	-0.0	-0.0	-0.0	-0.0	-0.0	-0.0	46560.70703125	-23961.06640625	5953.4140625
0.0125	-0.0	-0.0	-0.0	-2.8079068660736084	66.82440948486328	-627.1173095703125	12.064666748046877	-14.028976440429688	-178.5087127685547	-0.0	-0.0	-0.0	-0.0	-0.0	-0.0	46955.28125	-24289.521484375	6008.06689453125
0.013000000000000001	-0.0	-0.0	-0.0	-2.6104679107666016	67.12899017333984	-627.1550903320312	12.129992485046388	-14.498801231384276	-178.1958770751953	-0.0	-0.0	-0.0	-0.0	-0.0	-0.0	46678.33984375	-24123.54296875	6134.47802734375
0.0135	-0.0	-0.0	-0.0	-2.5211846828460693	67.21398162841797	-627.78515625	12.232701301574709	-15.103008270263672	-179.42698669433594	-0.0	-0.0	-0.0	-0.0	-0.0	-0.0	46879.359375	-24197.1640625	6164.0498046875
0.014	-0.0	-0.0	-0.0	-2.6530978679656982	67.46195220947266	-628.9747924804688	12.732121467590332	-14.782313346862791	-180.43663024902344	-0.0	-0.0	-0.0	-0.0	-0.0	-0.0	46973.8125	-24294.671875	6181.771484375
0.0145	-0.0	-0.0	-0.0	-2.643296718597412	67.18465423583984	-627.9539794921875	12.28440761566162	-15.070394515991213	-180.54901123046875	-0.0	-0.0	-0.0	-0.0	-0.0	-0.0	47264.13671875	-24411.537109375	6185.98291015625
0.015	-0.0	-0.0	-0.0	-2.4186384677886963	67.08535766601562	-627.2869873046875	12.541014671325684	-15.11640167236328	-180.6404571533203	-0.0	-0.0	-0.0	-0.0	-0.0	-0.0	47235.171875	-24406.21875	6100.4072265625
0.0155	-0.0	-0.0	-0.0	-2.0417776107788086	67.38258361816406	-628.75146484375	12.830233573913574	-15.358237266540527	-181.8172607421875	-0.0	-0.0	-0.0	-0.0	-0.0	-0.0	47371.45703125	-24344.53125	6156.658203125
0.016	-0.0	-0.0	-0.0	-2.240415573120117	67.09224700927734	-627.3385009765625	12.764485359191896	-15.430161476135254	-181.81748962402344	-0.0	-0.0	-0.0	-0.0	-0.0	-0.0	47368.1328125	-24552.916015625	6267.57080078125
0.0165	-0.0	-0.0	-0.0	-2.263416290283203	67.26033782958984	-627.65087890625	12.751425743103027	-15.610111236572266	-182.42581176757807	-0.0	-0.0	-0.0	-0.0	-0.0	-0.0	47503.11328125	-24633.22265625	6286.21337890625
0.017	-0.0	-0.0	-0.0	-1.916970133781433	67.07169342041016	-626.5822143554688	12.906064987182615	-15.849696159362791	-182.566650390625	-0.0	-0.0	-0.0	-0.0	-0.0	-0.0	47606.875	-24581.4765625	6397.30078125
0.0175	-0.0	-0.0	-0.0	-2.27577805519104	67.34756469726562	-626.18798828125	13.195124626159668	-16.130048751831055	-183.1748504638672	-0.0	-0.0	-0.0	-0.0	-0.0	-0.0	47537.95703125	-24776.38671875	6349.17822265625
0.018000000000000002	-0.0	-0.0	-0.0	-2.1637587547302246	67.86306762695312	-625.5234375	13.184917449951172	-15.86505889892578	-182.1763916015625	-0.0	-0.0	-0.0	-0.0	-0.0	-0.0	47465.9921875	-24514.669921875	6450.044921875
0.0185	-0.0	-0.0	-0.0	-2.252896308898926	67.27216339111328	-625.8770751953125	12.497854232788086	-16.16286849975586	-181.8188018798828	-0.0	-0.0	-0.0	-0.0	-0.0	-0.0	47086.16015625	-24326.908203125	6404.638671875
0.019	-0.0	-0.0	-0.0	-2.063638210296631	67.56085205078125	-625.8775024414062	12.452571868896484	-16.341140747070312	-180.94943237304688	-0.0	-0.0	-0.0	-0.0	-0.0	-0.0	46938.8125	-24287.46484375	6304.53759765625
0.0195	-0.0	-0.0	-0.0	-1.8400704860687256	67.64997863769531	-627.24755859375	12.064666748046877	-16.4053955078125	-178.8486785888672	-0.0	-0.0	-0.0	-0.0	-0.0	-0.0	46395.98046875	-24039.259765625	6230.333984375
0.02	-0.0	-0.0	-0.0	-1.5718647241592407	68.08468627929688	-626.937744140625	11.986616134643556	-16.626842498779297	-178.32806396484375	-0.0	-0.0	-0.0	-0.0	-0.0	-0.0	46498.60546875	-24022.08203125	6129.734375
0.0205	-0.0	-0.0	-0.0	-1.906843900680542	68.02884674072266	-626.18798828125	11.454460144042969	-16.825706481933594	-178.10971069335938	-0.0	-0.0	-0.0	-0.0	-0.0	-0.0	46460.8359375	-23724.34375	6173.9931640625
0.021	-0.0	-0.0	-0.0	-1.6169657707214355	68.0955810546875	-628.0863647460938	11.577082633972168	-17.387928009033203	-179.11734008789062	-0.0	-0.0	-0.0	-0.0	-0.0	-0.0	46319.16796875	-23637.443359375	6166.46728515625
0.021500000000000002	-0.0	-0.0	-0.0	-1.9066550731658936	68.44091033935547	-627.1595458984375	11.254956245422363	-17.487693786621094	-179.55157470703125	-0.0	-0.0	-0.0	-0.0	-0.0	-0.0	46184.40625	-23735.171875	6110.69189453125
0.022	-0.0	-0.0	-0.0	-1.728521466255188	68.95344543457031	-627.6007080078125	11.410433769226074	-17.75265884399414	-179.11477661132812	-0.0	-0.0	-0.0	-0.0	-0.0	-0.0	46644.3515625	-23886.744140625	6069.890625
0.0225	-0.0	-0.0	-0.0	-1.817753791809082	68.74235534667969	-625.7925415039062	11.310676574707031	-18.448152542114254	-182.78106689453125	-0.0	-0.0	-0.0	-0.0	-0.0	-0.0	46933.03125	-23920.400390625	6192.01416015625
0.023	-0.0	-0.0	-0.0	-1.9511016607284544	68.83171081542969	-627.4677734375	11.454534530639648	-19.033126831054688	-184.17669677734372	-0.0	-0.0	-0.0	-0.0	-0.0	-0.0	47568.703125	-24312.30078125	6310.6123046875
0.0235	-0.0	-0.0	-0.0	-1.7622326612472534	69.43258666992188	-626.234130859375	11.731830596923828	-19.673145294189453	-186.83807373046875	-0.0	-0.0	-0.0	-0.0	-0.0	-0.0	48266.12890625	-24404.9140625	6340.298828125
0.024	-0.0	-0.0	-0.0	-1.5721430778503418	69.09796142578125	-625.302001953125	11.687875747680664	-20.104108810424805	-188.8046417236328	-0.0	-0.0	-0.0	-0.0	-0.0	-0.0	48786.80859375	-24683.236328125	6495.80712890625
0.0245	-0.0	-0.0	-0.0	-1.4829002618789673	69.74542999267578	-624.1157836914062	12.075020790100098	-20.424097061157227	-190.76829528808597	-0.0	-0.0	-0.0	-0.0	-0.0	-0.0	49432.6953125	-25199.189453125	6488.65185546875
0.025	-0.0	-0.0	-0.0	-1.3241362571716309	69.48027801513672	-622.8369750976562	12.009406089782717	-21.163902282714844	-194.431640625	-0.0	-0.0	-0.0	-0.0	-0.0	-0.0	50095.23046875	-25397.28125	6610.462890625
